<mxfile host="app.diagrams.net" agent="Mozilla/5.0 (Macintosh; Intel Mac OS X 10_15_7) AppleWebKit/537.36 (KHTML, like Gecko) Chrome/131.0.0.0 Safari/537.36" version="26.0.6">
  <diagram name="Page-1" id="m3b1C--dupeoi9qy09vE">
    <mxGraphModel dx="821" dy="520" grid="1" gridSize="10" guides="1" tooltips="1" connect="1" arrows="1" fold="1" page="1" pageScale="1" pageWidth="850" pageHeight="1100" math="0" shadow="0">
      <root>
        <mxCell id="0" />
        <mxCell id="1" parent="0" />
        <mxCell id="dhNCunHIIl0Hs35C1LgU-55" value="" style="rounded=0;whiteSpace=wrap;html=1;fillColor=#f5f5f5;fontColor=#333333;strokeColor=#666666;" vertex="1" parent="1">
          <mxGeometry x="60" y="160" width="640" height="270" as="geometry" />
        </mxCell>
        <mxCell id="dhNCunHIIl0Hs35C1LgU-37" value="" style="rounded=1;whiteSpace=wrap;html=1;fillColor=#fff2cc;strokeColor=#d6b656;" vertex="1" parent="1">
          <mxGeometry x="413" y="190" width="100" height="200" as="geometry" />
        </mxCell>
        <mxCell id="dhNCunHIIl0Hs35C1LgU-40" style="edgeStyle=orthogonalEdgeStyle;rounded=0;orthogonalLoop=1;jettySize=auto;html=1;exitX=0.5;exitY=1;exitDx=0;exitDy=0;entryX=0.5;entryY=1;entryDx=0;entryDy=0;strokeColor=#7EA6E0;" edge="1" parent="1" source="dhNCunHIIl0Hs35C1LgU-13" target="dhNCunHIIl0Hs35C1LgU-37">
          <mxGeometry relative="1" as="geometry">
            <Array as="points">
              <mxPoint x="200" y="420" />
              <mxPoint x="463" y="420" />
            </Array>
          </mxGeometry>
        </mxCell>
        <mxCell id="dhNCunHIIl0Hs35C1LgU-13" value="" style="rounded=1;whiteSpace=wrap;html=1;fillColor=#dae8fc;strokeColor=#6c8ebf;" vertex="1" parent="1">
          <mxGeometry x="80" y="170" width="240" height="220" as="geometry" />
        </mxCell>
        <mxCell id="dhNCunHIIl0Hs35C1LgU-1" value="LLM 1" style="rounded=1;whiteSpace=wrap;html=1;fillColor=#d5e8d4;strokeColor=#82b366;" vertex="1" parent="1">
          <mxGeometry x="220" y="220" width="80" height="30" as="geometry" />
        </mxCell>
        <mxCell id="dhNCunHIIl0Hs35C1LgU-12" style="edgeStyle=orthogonalEdgeStyle;rounded=0;orthogonalLoop=1;jettySize=auto;html=1;exitX=0;exitY=0.5;exitDx=0;exitDy=0;entryX=1;entryY=0.5;entryDx=0;entryDy=0;strokeColor=#7EA6E0;" edge="1" parent="1" source="dhNCunHIIl0Hs35C1LgU-2" target="dhNCunHIIl0Hs35C1LgU-5">
          <mxGeometry relative="1" as="geometry" />
        </mxCell>
        <mxCell id="dhNCunHIIl0Hs35C1LgU-2" value="LLM 2" style="rounded=1;whiteSpace=wrap;html=1;fillColor=#d5e8d4;strokeColor=#82b366;" vertex="1" parent="1">
          <mxGeometry x="220" y="260" width="80" height="30" as="geometry" />
        </mxCell>
        <mxCell id="dhNCunHIIl0Hs35C1LgU-9" style="edgeStyle=orthogonalEdgeStyle;rounded=0;orthogonalLoop=1;jettySize=auto;html=1;entryX=0.876;entryY=0.982;entryDx=0;entryDy=0;entryPerimeter=0;strokeColor=#7EA6E0;" edge="1" parent="1" source="dhNCunHIIl0Hs35C1LgU-4" target="dhNCunHIIl0Hs35C1LgU-5">
          <mxGeometry relative="1" as="geometry">
            <mxPoint x="160" y="320" as="targetPoint" />
          </mxGeometry>
        </mxCell>
        <mxCell id="dhNCunHIIl0Hs35C1LgU-4" value="LLM &lt;i&gt;N&lt;/i&gt;" style="rounded=1;whiteSpace=wrap;html=1;fillColor=#d5e8d4;strokeColor=#82b366;" vertex="1" parent="1">
          <mxGeometry x="220" y="340" width="80" height="30" as="geometry" />
        </mxCell>
        <mxCell id="dhNCunHIIl0Hs35C1LgU-5" value="Dataset" style="shape=process;whiteSpace=wrap;html=1;backgroundOutline=1;fillColor=#dae8fc;strokeColor=#6c8ebf;" vertex="1" parent="1">
          <mxGeometry x="90" y="270" width="80" height="40" as="geometry" />
        </mxCell>
        <mxCell id="dhNCunHIIl0Hs35C1LgU-7" style="edgeStyle=orthogonalEdgeStyle;rounded=0;orthogonalLoop=1;jettySize=auto;html=1;exitX=0;exitY=0.5;exitDx=0;exitDy=0;entryX=0.875;entryY=0;entryDx=0;entryDy=0;entryPerimeter=0;strokeColor=#7EA6E0;" edge="1" parent="1" source="dhNCunHIIl0Hs35C1LgU-1" target="dhNCunHIIl0Hs35C1LgU-5">
          <mxGeometry relative="1" as="geometry" />
        </mxCell>
        <mxCell id="dhNCunHIIl0Hs35C1LgU-57" style="edgeStyle=orthogonalEdgeStyle;rounded=0;orthogonalLoop=1;jettySize=auto;html=1;exitX=0;exitY=0.5;exitDx=0;exitDy=0;entryX=1;entryY=0.5;entryDx=0;entryDy=0;strokeColor=#7EA6E0;" edge="1" parent="1" source="dhNCunHIIl0Hs35C1LgU-10" target="dhNCunHIIl0Hs35C1LgU-5">
          <mxGeometry relative="1" as="geometry" />
        </mxCell>
        <mxCell id="dhNCunHIIl0Hs35C1LgU-10" value="..." style="rounded=1;whiteSpace=wrap;html=1;fillColor=#d5e8d4;strokeColor=#82b366;" vertex="1" parent="1">
          <mxGeometry x="220" y="300" width="80" height="30" as="geometry" />
        </mxCell>
        <mxCell id="dhNCunHIIl0Hs35C1LgU-14" value="LoRA Finetuning" style="text;html=1;align=center;verticalAlign=middle;whiteSpace=wrap;rounded=0;" vertex="1" parent="1">
          <mxGeometry x="140" y="180" width="120" height="30" as="geometry" />
        </mxCell>
        <mxCell id="dhNCunHIIl0Hs35C1LgU-48" style="edgeStyle=orthogonalEdgeStyle;rounded=0;orthogonalLoop=1;jettySize=auto;html=1;exitX=1;exitY=0.5;exitDx=0;exitDy=0;entryX=0;entryY=0.5;entryDx=0;entryDy=0;strokeColor=#EA6B66;" edge="1" parent="1" source="dhNCunHIIl0Hs35C1LgU-16" target="dhNCunHIIl0Hs35C1LgU-47">
          <mxGeometry relative="1" as="geometry" />
        </mxCell>
        <mxCell id="dhNCunHIIl0Hs35C1LgU-16" value="LLM 1" style="rounded=1;whiteSpace=wrap;html=1;fillColor=#d5e8d4;strokeColor=#82b366;" vertex="1" parent="1">
          <mxGeometry x="423" y="237.5" width="80" height="30" as="geometry" />
        </mxCell>
        <mxCell id="dhNCunHIIl0Hs35C1LgU-49" style="edgeStyle=orthogonalEdgeStyle;rounded=0;orthogonalLoop=1;jettySize=auto;html=1;exitX=1;exitY=0.5;exitDx=0;exitDy=0;strokeColor=#EA6B66;" edge="1" parent="1" source="dhNCunHIIl0Hs35C1LgU-17">
          <mxGeometry relative="1" as="geometry">
            <mxPoint x="550" y="295.1111111111111" as="targetPoint" />
          </mxGeometry>
        </mxCell>
        <mxCell id="dhNCunHIIl0Hs35C1LgU-17" value="LLM 2" style="rounded=1;whiteSpace=wrap;html=1;fillColor=#d5e8d4;strokeColor=#82b366;" vertex="1" parent="1">
          <mxGeometry x="423" y="280" width="80" height="30" as="geometry" />
        </mxCell>
        <mxCell id="dhNCunHIIl0Hs35C1LgU-50" style="edgeStyle=orthogonalEdgeStyle;rounded=0;orthogonalLoop=1;jettySize=auto;html=1;exitX=1;exitY=0.5;exitDx=0;exitDy=0;entryX=0;entryY=0.5;entryDx=0;entryDy=0;strokeColor=#EA6B66;" edge="1" parent="1" source="dhNCunHIIl0Hs35C1LgU-18" target="dhNCunHIIl0Hs35C1LgU-47">
          <mxGeometry relative="1" as="geometry" />
        </mxCell>
        <mxCell id="dhNCunHIIl0Hs35C1LgU-18" value="LLM 3" style="rounded=1;whiteSpace=wrap;html=1;fillColor=#d5e8d4;strokeColor=#82b366;" vertex="1" parent="1">
          <mxGeometry x="423" y="327.5" width="80" height="30" as="geometry" />
        </mxCell>
        <mxCell id="dhNCunHIIl0Hs35C1LgU-22" value="Best candidates" style="text;html=1;align=center;verticalAlign=middle;whiteSpace=wrap;rounded=0;" vertex="1" parent="1">
          <mxGeometry x="413" y="200" width="100" height="20" as="geometry" />
        </mxCell>
        <mxCell id="dhNCunHIIl0Hs35C1LgU-41" value="Automatic + Human Evaluation" style="text;html=1;align=center;verticalAlign=middle;whiteSpace=wrap;rounded=0;" vertex="1" parent="1">
          <mxGeometry x="180" y="400" width="300" height="20" as="geometry" />
        </mxCell>
        <mxCell id="dhNCunHIIl0Hs35C1LgU-44" style="edgeStyle=orthogonalEdgeStyle;rounded=0;orthogonalLoop=1;jettySize=auto;html=1;exitX=1;exitY=0.5;exitDx=0;exitDy=0;entryX=0;entryY=0.5;entryDx=0;entryDy=0;strokeColor=#FFB570;" edge="1" parent="1" source="dhNCunHIIl0Hs35C1LgU-42" target="dhNCunHIIl0Hs35C1LgU-16">
          <mxGeometry relative="1" as="geometry" />
        </mxCell>
        <mxCell id="dhNCunHIIl0Hs35C1LgU-45" style="edgeStyle=orthogonalEdgeStyle;rounded=0;orthogonalLoop=1;jettySize=auto;html=1;exitX=1;exitY=0.5;exitDx=0;exitDy=0;entryX=0;entryY=0.5;entryDx=0;entryDy=0;strokeColor=#FFB570;" edge="1" parent="1" source="dhNCunHIIl0Hs35C1LgU-42" target="dhNCunHIIl0Hs35C1LgU-17">
          <mxGeometry relative="1" as="geometry" />
        </mxCell>
        <mxCell id="dhNCunHIIl0Hs35C1LgU-46" style="edgeStyle=orthogonalEdgeStyle;rounded=0;orthogonalLoop=1;jettySize=auto;html=1;exitX=1;exitY=0.5;exitDx=0;exitDy=0;entryX=0;entryY=0.5;entryDx=0;entryDy=0;strokeColor=#FFB570;" edge="1" parent="1" source="dhNCunHIIl0Hs35C1LgU-42" target="dhNCunHIIl0Hs35C1LgU-18">
          <mxGeometry relative="1" as="geometry" />
        </mxCell>
        <mxCell id="dhNCunHIIl0Hs35C1LgU-52" style="edgeStyle=orthogonalEdgeStyle;rounded=0;orthogonalLoop=1;jettySize=auto;html=1;exitX=0.5;exitY=0;exitDx=0;exitDy=0;entryX=0.5;entryY=1;entryDx=0;entryDy=0;strokeColor=#FFB570;" edge="1" parent="1" source="dhNCunHIIl0Hs35C1LgU-42" target="dhNCunHIIl0Hs35C1LgU-47">
          <mxGeometry relative="1" as="geometry">
            <Array as="points">
              <mxPoint x="358" y="380" />
              <mxPoint x="590" y="380" />
            </Array>
          </mxGeometry>
        </mxCell>
        <mxCell id="dhNCunHIIl0Hs35C1LgU-42" value="Input" style="rounded=0;whiteSpace=wrap;html=1;fillColor=#e1d5e7;strokeColor=#9673a6;" vertex="1" parent="1">
          <mxGeometry x="338" y="285" width="40" height="20" as="geometry" />
        </mxCell>
        <mxCell id="dhNCunHIIl0Hs35C1LgU-54" style="edgeStyle=orthogonalEdgeStyle;rounded=0;orthogonalLoop=1;jettySize=auto;html=1;exitX=1;exitY=0.5;exitDx=0;exitDy=0;entryX=0;entryY=0.5;entryDx=0;entryDy=0;strokeColor=#A680B8;" edge="1" parent="1" source="dhNCunHIIl0Hs35C1LgU-47" target="dhNCunHIIl0Hs35C1LgU-53">
          <mxGeometry relative="1" as="geometry" />
        </mxCell>
        <mxCell id="dhNCunHIIl0Hs35C1LgU-47" value="Moderator LLM" style="rounded=1;whiteSpace=wrap;html=1;fillColor=#f8cecc;strokeColor=#b85450;" vertex="1" parent="1">
          <mxGeometry x="550" y="273.75" width="80" height="42.5" as="geometry" />
        </mxCell>
        <mxCell id="dhNCunHIIl0Hs35C1LgU-53" value="Output" style="rounded=0;whiteSpace=wrap;html=1;fillColor=#e1d5e7;strokeColor=#9673a6;" vertex="1" parent="1">
          <mxGeometry x="650" y="285" width="40" height="20" as="geometry" />
        </mxCell>
      </root>
    </mxGraphModel>
  </diagram>
</mxfile>
